<svg width="113" height="28" viewBox="0 0 113 28" fill="none" xmlns="http://www.w3.org/2000/svg">
<path d="M16.4365 15.6289C16.4365 16.3857 16.3389 17.0531 16.1436 17.6309C15.9564 18.2087 15.6878 18.7091 15.3379 19.1323C14.9961 19.5555 14.5892 19.9095 14.1172 20.1943C13.6452 20.4792 13.1284 20.707 12.5669 20.8779C12.0135 21.0488 11.4235 21.1709 10.7969 21.2441C10.1784 21.3174 9.54769 21.354 8.90479 21.354C8.05843 21.354 7.27718 21.2889 6.56104 21.1587C5.84489 21.0366 5.16943 20.8413 4.53467 20.5728C3.90804 20.2961 3.30176 19.9421 2.71582 19.5107C2.13802 19.0794 1.56022 18.5545 0.982422 17.936L3.47266 15.4092C3.70052 15.9707 4.01383 16.4915 4.4126 16.9717C4.81136 17.4437 5.24674 17.8506 5.71875 18.1924C6.19889 18.5342 6.69531 18.8027 7.20801 18.998C7.7207 19.1934 8.20492 19.291 8.66064 19.291C9.19775 19.291 9.70231 19.2544 10.1743 19.1812C10.6463 19.0998 11.0573 18.9696 11.4072 18.7905C11.7572 18.6115 12.0298 18.3755 12.2251 18.0825C12.4285 17.7814 12.5303 17.4071 12.5303 16.9595C12.5303 16.6177 12.453 16.3247 12.2983 16.0806C12.1437 15.8364 11.9403 15.6289 11.688 15.458C11.4438 15.279 11.1631 15.1284 10.8457 15.0063C10.5283 14.8843 10.2028 14.7826 9.86914 14.7012C9.54362 14.6117 9.22217 14.5343 8.90479 14.4692C8.5874 14.396 8.30664 14.3228 8.0625 14.2495C7.58236 14.1112 7.08187 13.9647 6.56104 13.8101C6.0402 13.6473 5.52751 13.4642 5.02295 13.2607C4.51839 13.0573 4.03825 12.8254 3.58252 12.5649C3.13493 12.2964 2.74023 11.9831 2.39844 11.625C2.05664 11.2588 1.78402 10.8397 1.58057 10.3677C1.37712 9.88753 1.27539 9.33822 1.27539 8.71973C1.27539 7.97917 1.36491 7.32406 1.54395 6.75439C1.73112 6.1766 1.99154 5.67611 2.3252 5.25293C2.65885 4.82975 3.05355 4.47575 3.50928 4.19092C3.96501 3.89795 4.46549 3.66602 5.01074 3.49512C5.55599 3.31608 6.13379 3.18994 6.74414 3.1167C7.36263 3.03532 7.99333 2.99463 8.63623 2.99463C9.51514 2.99463 10.3127 3.07601 11.0288 3.23877C11.7531 3.40153 12.4204 3.63346 13.0308 3.93457C13.6411 4.23568 14.1986 4.59782 14.7031 5.021C15.2158 5.43604 15.696 5.8999 16.1436 6.4126L13.6533 8.93945C13.458 8.35352 13.1854 7.82454 12.8354 7.35254C12.4937 6.88053 12.1112 6.4777 11.688 6.14404C11.2648 5.80225 10.8213 5.54183 10.3574 5.36279C9.89355 5.17562 9.44596 5.08203 9.01465 5.08203C8.45312 5.08203 7.93636 5.12272 7.46436 5.2041C6.99235 5.27734 6.58545 5.40348 6.24365 5.58252C5.90999 5.75342 5.64958 5.98942 5.4624 6.29053C5.27523 6.5835 5.18164 6.94971 5.18164 7.38916C5.18164 7.7391 5.25081 8.03613 5.38916 8.28027C5.52751 8.52441 5.71061 8.73193 5.93848 8.90283C6.17448 9.07373 6.43896 9.21615 6.73193 9.33008C7.0249 9.43587 7.32601 9.52946 7.63525 9.61084C7.95264 9.69222 8.26188 9.76546 8.56299 9.83057C8.87223 9.88753 9.15299 9.95264 9.40527 10.0259C9.89355 10.1642 10.4062 10.3107 10.9434 10.4653C11.4805 10.62 12.0094 10.8031 12.5303 11.0146C13.0511 11.2181 13.5475 11.4541 14.0195 11.7227C14.4915 11.9912 14.9066 12.3127 15.2646 12.687C15.6227 13.0532 15.9076 13.4805 16.1191 13.9688C16.3307 14.4489 16.4365 15.0023 16.4365 15.6289ZM23.1748 21H19.0488V1.71289H23.1748V14.3716C23.8503 13.8833 24.5135 13.3462 25.1646 12.7603C25.8237 12.1743 26.4504 11.5599 27.0444 10.917C27.6385 10.266 28.1878 9.6027 28.6924 8.92725C29.2051 8.25179 29.6527 7.57633 30.0352 6.90088H32.8428C32.2731 7.86117 31.5977 8.82145 30.8164 9.78174C30.0352 10.7339 29.1847 11.6453 28.2651 12.5161L32.8916 21H28.3384L25.0547 15.1162C24.4443 15.5312 23.8177 15.9137 23.1748 16.2637V21ZM47.6621 6.90088L42.5352 19.3032C41.9492 20.7192 41.2941 22.119 40.5698 23.5024C39.8537 24.894 39.0765 26.2287 38.2383 27.5063L36.627 26.5298C36.8304 26.1636 37.0705 25.7404 37.3472 25.2603C37.6239 24.7801 37.8965 24.2837 38.165 23.771C38.4336 23.2583 38.6818 22.7497 38.9097 22.2451C39.1375 21.7487 39.3125 21.293 39.4346 20.8779L33.27 6.90088H37.396L41.583 16.4346L44.8057 6.90088H47.6621Z" fill="#5EA3C0"/>
<path d="M57.4277 21H52.9966L48.3823 3.42188H53.3262L56.2437 15.8975L58.8315 3.42188H63.2749L66.1069 16.2148L69.293 3.42188H72.2837L67.1689 21H62.7256L60.2476 9.76953L57.4277 21ZM87.6646 21H83.5386V19.3154C83.0503 19.9827 82.4603 20.4792 81.7686 20.8047C81.085 21.1221 80.3322 21.2808 79.5103 21.2808C78.436 21.2808 77.4757 21.0895 76.6294 20.707C75.783 20.3245 75.0669 19.8037 74.481 19.1445C73.895 18.4772 73.4474 17.696 73.1382 16.8008C72.8289 15.9056 72.6743 14.9453 72.6743 13.9199C72.6743 12.8945 72.8289 11.9342 73.1382 11.0391C73.4474 10.1439 73.895 9.3667 74.481 8.70752C75.0669 8.0402 75.783 7.5153 76.6294 7.13281C77.4757 6.75033 78.436 6.55908 79.5103 6.55908C80.0555 6.55908 80.5723 6.64046 81.0605 6.80322C81.557 6.96598 82.0086 7.19792 82.4155 7.49902C82.8306 7.79199 83.1927 8.15007 83.502 8.57324C83.8193 8.98828 84.0675 9.45215 84.2466 9.96484L86.0776 6.90088H87.6646V21ZM83.5142 13.9199C83.5142 13.5537 83.4938 13.1672 83.4531 12.7603C83.4206 12.3534 83.3595 11.9505 83.27 11.5518C83.1805 11.153 83.0544 10.7746 82.8916 10.4165C82.737 10.0503 82.5335 9.72884 82.2812 9.45215C82.0371 9.16732 81.7401 8.94352 81.3901 8.78076C81.0402 8.618 80.6333 8.53662 80.1694 8.53662C79.7056 8.53662 79.3027 8.62207 78.9609 8.79297C78.6191 8.95573 78.3262 9.17952 78.082 9.46436C77.8379 9.74105 77.6344 10.0625 77.4717 10.4287C77.3171 10.7949 77.195 11.1774 77.1055 11.5762C77.016 11.9749 76.9508 12.3778 76.9102 12.7847C76.8776 13.1834 76.8613 13.5618 76.8613 13.9199C76.8613 14.278 76.8776 14.6605 76.9102 15.0674C76.9508 15.4743 77.016 15.8771 77.1055 16.2759C77.195 16.6746 77.3171 17.0571 77.4717 17.4233C77.6344 17.7896 77.8379 18.1151 78.082 18.3999C78.3262 18.6766 78.6191 18.9004 78.9609 19.0713C79.3027 19.234 79.7056 19.3154 80.1694 19.3154C80.5926 19.3154 80.967 19.23 81.2925 19.0591C81.6261 18.88 81.915 18.644 82.1592 18.3511C82.4115 18.0581 82.623 17.7244 82.7939 17.3501C82.9648 16.9757 83.1032 16.5892 83.209 16.1904C83.3148 15.7917 83.3921 15.397 83.4409 15.0063C83.4897 14.6076 83.5142 14.2454 83.5142 13.9199ZM95.2451 21H91.1191V0.406738H92.7061L95.2451 4.69141V21ZM102.813 21H98.6875V1.71289H102.813V14.3716C103.489 13.8833 104.152 13.3462 104.803 12.7603C105.462 12.1743 106.089 11.5599 106.683 10.917C107.277 10.266 107.826 9.6027 108.331 8.92725C108.844 8.25179 109.291 7.57633 109.674 6.90088H112.481C111.912 7.86117 111.236 8.82145 110.455 9.78174C109.674 10.7339 108.823 11.6453 107.904 12.5161L112.53 21H107.977L104.693 15.1162C104.083 15.5312 103.456 15.9137 102.813 16.2637V21Z" fill="black"/>
</svg>
